<?xml version="1.0" encoding="UTF-8"?>
<svg version="1.1" viewBox="0 0 100 125" xml:space="preserve" xmlns="http://www.w3.org/2000/svg"><g fill="#A0A0A0"><path d="m69.054 59.058l27.471 23.811c2.494 2.162 2.766 5.971 0.604 8.465l-0.981 1.132c-2.162 2.494-5.971 2.766-8.465 0.604l-27.265-23.632"/><path d="m2.358 41.458c0-19.744 16.005-35.749 35.751-35.749 19.744 0 35.749 16.005 35.749 35.749 0 19.746-16.005 35.751-35.749 35.751-19.746-1e-3 -35.751-16.006-35.751-35.751zm36.205 26.125c14.428 0 26.124-11.696 26.124-26.126 0-14.428-11.696-26.124-26.124-26.124-14.43 0-26.126 11.696-26.126 26.124 1e-3 14.43 11.697 26.126 26.126 26.126z"/></g></svg>